<mxfile host="Electron" agent="Mozilla/5.0 (X11; Linux x86_64) AppleWebKit/537.36 (KHTML, like Gecko) draw.io/28.1.2 Chrome/138.0.7204.243 Electron/37.4.0 Safari/537.36" version="28.1.2">
  <diagram name="Página-1" id="lGG8gOyX3lQvKMkl7OQp">
    <mxGraphModel dx="1360" dy="843" grid="1" gridSize="10" guides="1" tooltips="1" connect="1" arrows="1" fold="1" page="1" pageScale="1" pageWidth="827" pageHeight="1169" math="0" shadow="0">
      <root>
        <mxCell id="0" />
        <mxCell id="1" parent="0" />
        <mxCell id="QBM6yuqwi7X1iJmwX9Kw-43" value="" style="edgeStyle=orthogonalEdgeStyle;rounded=0;orthogonalLoop=1;jettySize=auto;html=1;" parent="1" source="QBM6yuqwi7X1iJmwX9Kw-2" target="QBM6yuqwi7X1iJmwX9Kw-6" edge="1">
          <mxGeometry relative="1" as="geometry" />
        </mxCell>
        <mxCell id="QBM6yuqwi7X1iJmwX9Kw-2" value="&lt;b&gt;Jira&lt;/b&gt;" style="rounded=1;whiteSpace=wrap;html=1;fillColor=#dae8fc;strokeColor=#6c8ebf;" parent="1" vertex="1">
          <mxGeometry x="20" y="210" width="120" height="60" as="geometry" />
        </mxCell>
        <mxCell id="QBM6yuqwi7X1iJmwX9Kw-5" value="&lt;b&gt;&lt;font style=&quot;font-size: 14px;&quot;&gt;Planejamento / Design&lt;/font&gt;&lt;/b&gt;" style="text;whiteSpace=wrap;html=1;align=center;fillColor=#dae8fc;gradientColor=none;strokeColor=#330000;" parent="1" vertex="1">
          <mxGeometry x="20" y="60" width="120" height="50" as="geometry" />
        </mxCell>
        <mxCell id="QBM6yuqwi7X1iJmwX9Kw-6" value="" style="sketch=0;pointerEvents=1;shadow=0;dashed=0;html=1;strokeColor=none;fillColor=#505050;labelPosition=center;verticalLabelPosition=bottom;verticalAlign=top;outlineConnect=0;align=center;shape=mxgraph.office.sites.site_team;" parent="1" vertex="1">
          <mxGeometry x="50" y="120" width="60" height="49" as="geometry" />
        </mxCell>
        <mxCell id="QBM6yuqwi7X1iJmwX9Kw-8" value="" style="endArrow=classic;startArrow=classic;html=1;rounded=0;" parent="1" target="QBM6yuqwi7X1iJmwX9Kw-6" edge="1">
          <mxGeometry width="50" height="50" relative="1" as="geometry">
            <mxPoint x="80" y="210" as="sourcePoint" />
            <mxPoint x="130" y="160" as="targetPoint" />
          </mxGeometry>
        </mxCell>
        <mxCell id="QBM6yuqwi7X1iJmwX9Kw-38" value="" style="edgeStyle=orthogonalEdgeStyle;rounded=0;orthogonalLoop=1;jettySize=auto;html=1;" parent="1" source="QBM6yuqwi7X1iJmwX9Kw-10" target="QBM6yuqwi7X1iJmwX9Kw-33" edge="1">
          <mxGeometry relative="1" as="geometry" />
        </mxCell>
        <mxCell id="QBM6yuqwi7X1iJmwX9Kw-10" value="" style="verticalLabelPosition=bottom;html=1;verticalAlign=top;align=center;strokeColor=none;fillColor=#FFD966;shape=mxgraph.azure.github_code;pointerEvents=1;fillStyle=solid;" parent="1" vertex="1">
          <mxGeometry x="200" y="215" width="50" height="50" as="geometry" />
        </mxCell>
        <mxCell id="QBM6yuqwi7X1iJmwX9Kw-12" value="&lt;b&gt;&lt;font style=&quot;font-size: 14px;&quot;&gt;Desenvolvimento/ Versionamento&lt;/font&gt;&lt;/b&gt;" style="text;whiteSpace=wrap;html=1;fillColor=#fff2cc;gradientColor=none;strokeColor=light-dark(#0d0d0c, #6d5100);" parent="1" vertex="1">
          <mxGeometry x="160" y="60" width="130" height="50" as="geometry" />
        </mxCell>
        <mxCell id="QBM6yuqwi7X1iJmwX9Kw-14" style="edgeStyle=orthogonalEdgeStyle;rounded=0;orthogonalLoop=1;jettySize=auto;html=1;entryX=0.5;entryY=0;entryDx=0;entryDy=0;entryPerimeter=0;" parent="1" edge="1">
          <mxGeometry relative="1" as="geometry">
            <mxPoint x="231.79999999999995" y="188.5" as="sourcePoint" />
            <mxPoint x="231.75" y="188.5" as="targetPoint" />
          </mxGeometry>
        </mxCell>
        <mxCell id="QBM6yuqwi7X1iJmwX9Kw-24" value="" style="endArrow=classic;startArrow=classic;html=1;rounded=0;entryX=0;entryY=0.5;entryDx=0;entryDy=0;entryPerimeter=0;" parent="1" target="QBM6yuqwi7X1iJmwX9Kw-10" edge="1">
          <mxGeometry width="50" height="50" relative="1" as="geometry">
            <mxPoint x="140" y="240" as="sourcePoint" />
            <mxPoint x="190" y="190" as="targetPoint" />
          </mxGeometry>
        </mxCell>
        <mxCell id="QBM6yuqwi7X1iJmwX9Kw-31" value="&lt;span style=&quot;font-size: 14px;&quot;&gt;&lt;b&gt;CI/CD Pipeline&amp;nbsp;&lt;/b&gt;&lt;/span&gt;" style="text;whiteSpace=wrap;html=1;align=center;labelBorderColor=none;fillColor=#ffcc99;strokeColor=#36393d;" parent="1" vertex="1">
          <mxGeometry x="300" y="60" width="820" height="50" as="geometry" />
        </mxCell>
        <mxCell id="QBM6yuqwi7X1iJmwX9Kw-51" style="edgeStyle=orthogonalEdgeStyle;rounded=0;orthogonalLoop=1;jettySize=auto;html=1;exitX=1;exitY=0.5;exitDx=0;exitDy=0;entryX=0;entryY=0.5;entryDx=0;entryDy=0;" parent="1" source="QBM6yuqwi7X1iJmwX9Kw-33" target="QBM6yuqwi7X1iJmwX9Kw-34" edge="1">
          <mxGeometry relative="1" as="geometry" />
        </mxCell>
        <mxCell id="QBM6yuqwi7X1iJmwX9Kw-33" value="&lt;b&gt;Secret Scan (Gitleaks)&lt;/b&gt;" style="rounded=1;whiteSpace=wrap;html=1;fillColor=#ffe6cc;strokeColor=#d79b00;" parent="1" vertex="1">
          <mxGeometry x="300" y="210" width="120" height="60" as="geometry" />
        </mxCell>
        <mxCell id="QBM6yuqwi7X1iJmwX9Kw-69" style="edgeStyle=orthogonalEdgeStyle;rounded=0;orthogonalLoop=1;jettySize=auto;html=1;exitX=1;exitY=0.5;exitDx=0;exitDy=0;entryX=0;entryY=0.5;entryDx=0;entryDy=0;" parent="1" source="QBM6yuqwi7X1iJmwX9Kw-34" target="QBM6yuqwi7X1iJmwX9Kw-35" edge="1">
          <mxGeometry relative="1" as="geometry" />
        </mxCell>
        <mxCell id="QBM6yuqwi7X1iJmwX9Kw-34" value="&lt;b&gt;SBOM - Syft/Grype&lt;/b&gt;" style="rounded=1;whiteSpace=wrap;html=1;fillColor=#ffe6cc;strokeColor=#d79b00;" parent="1" vertex="1">
          <mxGeometry x="440" y="210" width="120" height="60" as="geometry" />
        </mxCell>
        <mxCell id="QBM6yuqwi7X1iJmwX9Kw-53" style="edgeStyle=orthogonalEdgeStyle;rounded=0;orthogonalLoop=1;jettySize=auto;html=1;exitX=1;exitY=0.5;exitDx=0;exitDy=0;entryX=0;entryY=0.5;entryDx=0;entryDy=0;" parent="1" source="QBM6yuqwi7X1iJmwX9Kw-35" target="QBM6yuqwi7X1iJmwX9Kw-36" edge="1">
          <mxGeometry relative="1" as="geometry" />
        </mxCell>
        <mxCell id="QBM6yuqwi7X1iJmwX9Kw-35" value="&lt;b&gt;Unit Test&lt;/b&gt;" style="rounded=1;whiteSpace=wrap;html=1;fillColor=#ffe6cc;strokeColor=#d79b00;" parent="1" vertex="1">
          <mxGeometry x="580" y="210" width="120" height="60" as="geometry" />
        </mxCell>
        <mxCell id="QBM6yuqwi7X1iJmwX9Kw-54" style="edgeStyle=orthogonalEdgeStyle;rounded=0;orthogonalLoop=1;jettySize=auto;html=1;exitX=1;exitY=0.5;exitDx=0;exitDy=0;" parent="1" source="QBM6yuqwi7X1iJmwX9Kw-36" target="QBM6yuqwi7X1iJmwX9Kw-37" edge="1">
          <mxGeometry relative="1" as="geometry" />
        </mxCell>
        <mxCell id="QBM6yuqwi7X1iJmwX9Kw-36" value="&lt;b&gt;SAST - SonarQube&lt;/b&gt;" style="rounded=1;whiteSpace=wrap;html=1;fillColor=#ffe6cc;strokeColor=#d79b00;" parent="1" vertex="1">
          <mxGeometry x="720" y="210" width="120" height="60" as="geometry" />
        </mxCell>
        <mxCell id="QBM6yuqwi7X1iJmwX9Kw-59" style="edgeStyle=orthogonalEdgeStyle;rounded=0;orthogonalLoop=1;jettySize=auto;html=1;exitX=1;exitY=0.5;exitDx=0;exitDy=0;entryX=0;entryY=0.5;entryDx=0;entryDy=0;" parent="1" source="QBM6yuqwi7X1iJmwX9Kw-37" target="QBM6yuqwi7X1iJmwX9Kw-39" edge="1">
          <mxGeometry relative="1" as="geometry" />
        </mxCell>
        <mxCell id="QBM6yuqwi7X1iJmwX9Kw-37" value="&lt;b&gt;Dockerfile Scan (Trivy)&lt;/b&gt;" style="rounded=1;whiteSpace=wrap;html=1;fillColor=#ffe6cc;strokeColor=#d79b00;" parent="1" vertex="1">
          <mxGeometry x="860" y="210" width="120" height="60" as="geometry" />
        </mxCell>
        <mxCell id="QBM6yuqwi7X1iJmwX9Kw-71" style="edgeStyle=orthogonalEdgeStyle;rounded=0;orthogonalLoop=1;jettySize=auto;html=1;exitX=1;exitY=0.5;exitDx=0;exitDy=0;entryX=0;entryY=0.5;entryDx=0;entryDy=0;" parent="1" source="QBM6yuqwi7X1iJmwX9Kw-39" target="QBM6yuqwi7X1iJmwX9Kw-66" edge="1">
          <mxGeometry relative="1" as="geometry" />
        </mxCell>
        <mxCell id="QBM6yuqwi7X1iJmwX9Kw-39" value="&lt;b&gt;Build &amp;amp; Push Image&lt;/b&gt;" style="rounded=1;whiteSpace=wrap;html=1;fillColor=#ffe6cc;strokeColor=#d79b00;" parent="1" vertex="1">
          <mxGeometry x="1000" y="210" width="120" height="60" as="geometry" />
        </mxCell>
        <mxCell id="QBM6yuqwi7X1iJmwX9Kw-42" value="Escrita código/ commit/ push/ pull" style="rounded=1;whiteSpace=wrap;html=1;fillColor=#fff2cc;strokeColor=#d6b656;" parent="1" vertex="1">
          <mxGeometry x="165" y="114.5" width="120" height="60" as="geometry" />
        </mxCell>
        <mxCell id="QBM6yuqwi7X1iJmwX9Kw-48" value="" style="endArrow=classic;startArrow=classic;html=1;rounded=0;entryX=0.5;entryY=1;entryDx=0;entryDy=0;exitX=0.5;exitY=0;exitDx=0;exitDy=0;exitPerimeter=0;" parent="1" source="QBM6yuqwi7X1iJmwX9Kw-10" target="QBM6yuqwi7X1iJmwX9Kw-42" edge="1">
          <mxGeometry width="50" height="50" relative="1" as="geometry">
            <mxPoint x="220" y="219" as="sourcePoint" />
            <mxPoint x="240" y="170" as="targetPoint" />
          </mxGeometry>
        </mxCell>
        <mxCell id="QBM6yuqwi7X1iJmwX9Kw-49" value="&lt;b&gt;GitHub / GitLab / Azure Repos&lt;/b&gt;" style="text;whiteSpace=wrap;html=1;" parent="1" vertex="1">
          <mxGeometry x="140" y="270" width="190" height="40" as="geometry" />
        </mxCell>
        <mxCell id="QBM6yuqwi7X1iJmwX9Kw-88" style="rounded=0;orthogonalLoop=1;jettySize=auto;html=1;exitX=1;exitY=0.5;exitDx=0;exitDy=0;" parent="1" source="QBM6yuqwi7X1iJmwX9Kw-66" edge="1">
          <mxGeometry relative="1" as="geometry">
            <mxPoint x="1310" y="240" as="targetPoint" />
          </mxGeometry>
        </mxCell>
        <mxCell id="QBM6yuqwi7X1iJmwX9Kw-66" value="&lt;b&gt;Deploy&lt;/b&gt;" style="rounded=1;whiteSpace=wrap;html=1;fillColor=#d5e8d4;strokeColor=#82b366;" parent="1" vertex="1">
          <mxGeometry x="1142" y="210" width="120" height="60" as="geometry" />
        </mxCell>
        <mxCell id="QBM6yuqwi7X1iJmwX9Kw-77" style="edgeStyle=orthogonalEdgeStyle;rounded=0;orthogonalLoop=1;jettySize=auto;html=1;exitX=0;exitY=0.5;exitDx=0;exitDy=0;" parent="1" source="QBM6yuqwi7X1iJmwX9Kw-67" target="QBM6yuqwi7X1iJmwX9Kw-68" edge="1">
          <mxGeometry relative="1" as="geometry" />
        </mxCell>
        <mxCell id="QBM6yuqwi7X1iJmwX9Kw-67" value="&lt;b&gt;Kubernetes / App Service&lt;/b&gt;" style="rounded=1;whiteSpace=wrap;html=1;fillColor=#eeeeee;strokeColor=#36393d;" parent="1" vertex="1">
          <mxGeometry x="1142" y="310" width="120" height="60" as="geometry" />
        </mxCell>
        <mxCell id="QBM6yuqwi7X1iJmwX9Kw-80" style="edgeStyle=orthogonalEdgeStyle;rounded=0;orthogonalLoop=1;jettySize=auto;html=1;exitX=0;exitY=0.5;exitDx=0;exitDy=0;entryX=1;entryY=0.5;entryDx=0;entryDy=0;" parent="1" source="QBM6yuqwi7X1iJmwX9Kw-68" target="QBM6yuqwi7X1iJmwX9Kw-78" edge="1">
          <mxGeometry relative="1" as="geometry" />
        </mxCell>
        <mxCell id="QBM6yuqwi7X1iJmwX9Kw-68" value="&lt;b&gt;WAF / App Gateway&lt;/b&gt;" style="rounded=1;whiteSpace=wrap;html=1;fillColor=#eeeeee;strokeColor=#36393d;" parent="1" vertex="1">
          <mxGeometry x="1000" y="310" width="120" height="60" as="geometry" />
        </mxCell>
        <mxCell id="QBM6yuqwi7X1iJmwX9Kw-72" value="&lt;font style=&quot;font-size: 14px;&quot;&gt;&lt;b&gt;Implantação&lt;/b&gt;&lt;/font&gt;&lt;div&gt;&lt;font style=&quot;font-size: 14px;&quot;&gt;&lt;b&gt;&lt;br&gt;&lt;/b&gt;&lt;/font&gt;&lt;/div&gt;" style="text;html=1;align=center;verticalAlign=middle;resizable=0;points=[];autosize=1;strokeColor=#330000;fillColor=#d5e8d4;gradientColor=none;" parent="1" vertex="1">
          <mxGeometry x="1142" y="60" width="110" height="50" as="geometry" />
        </mxCell>
        <mxCell id="QBM6yuqwi7X1iJmwX9Kw-111" style="edgeStyle=orthogonalEdgeStyle;rounded=0;orthogonalLoop=1;jettySize=auto;html=1;exitX=0;exitY=0.5;exitDx=0;exitDy=0;entryX=1;entryY=0.5;entryDx=0;entryDy=0;fontFamily=Helvetica;fontSize=12;fontColor=default;labelBorderColor=none;" parent="1" source="QBM6yuqwi7X1iJmwX9Kw-78" target="QBM6yuqwi7X1iJmwX9Kw-105" edge="1">
          <mxGeometry relative="1" as="geometry" />
        </mxCell>
        <mxCell id="QBM6yuqwi7X1iJmwX9Kw-78" value="&lt;b&gt;Vault / Secure Config&lt;/b&gt;" style="rounded=1;whiteSpace=wrap;html=1;fillColor=#eeeeee;strokeColor=#36393d;" parent="1" vertex="1">
          <mxGeometry x="860" y="310" width="120" height="60" as="geometry" />
        </mxCell>
        <mxCell id="QBM6yuqwi7X1iJmwX9Kw-81" value="&lt;b&gt;&lt;font&gt;DAST - OWASP ZAP&lt;/font&gt;&lt;/b&gt;" style="rounded=1;whiteSpace=wrap;html=1;fillColor=#f9f7ed;strokeColor=#36393d;" parent="1" vertex="1">
          <mxGeometry x="1350" y="20" width="120" height="60" as="geometry" />
        </mxCell>
        <mxCell id="QBM6yuqwi7X1iJmwX9Kw-82" value="&lt;b&gt;Performance - JMeter&lt;/b&gt;" style="rounded=1;whiteSpace=wrap;html=1;fillColor=#f9f7ed;strokeColor=#36393d;" parent="1" vertex="1">
          <mxGeometry x="1350" y="100" width="120" height="60" as="geometry" />
        </mxCell>
        <mxCell id="QBM6yuqwi7X1iJmwX9Kw-83" value="&lt;b&gt;Testes End-to-End -&lt;/b&gt;&lt;div&gt;&lt;b&gt;Selenium&lt;/b&gt;&lt;/div&gt;" style="rounded=1;whiteSpace=wrap;html=1;fillColor=#f9f7ed;strokeColor=#36393d;" parent="1" vertex="1">
          <mxGeometry x="1350" y="180" width="120" height="60" as="geometry" />
        </mxCell>
        <mxCell id="QBM6yuqwi7X1iJmwX9Kw-84" value="&lt;b&gt;K8s Manifest Scan&lt;/b&gt;" style="rounded=1;whiteSpace=wrap;html=1;fillColor=#f9f7ed;strokeColor=#36393d;" parent="1" vertex="1">
          <mxGeometry x="1350" y="260" width="120" height="60" as="geometry" />
        </mxCell>
        <mxCell id="QBM6yuqwi7X1iJmwX9Kw-85" value="&lt;b&gt;Container Signing - Cosign&lt;/b&gt;" style="rounded=1;whiteSpace=wrap;html=1;fillColor=#f9f7ed;strokeColor=#36393d;" parent="1" vertex="1">
          <mxGeometry x="1350" y="340" width="120" height="60" as="geometry" />
        </mxCell>
        <mxCell id="QBM6yuqwi7X1iJmwX9Kw-86" value="&lt;b&gt;Image Validation - Trivy&lt;/b&gt;" style="rounded=1;whiteSpace=wrap;html=1;fillColor=#f9f7ed;strokeColor=#36393d;" parent="1" vertex="1">
          <mxGeometry x="1350" y="420" width="120" height="60" as="geometry" />
        </mxCell>
        <mxCell id="QBM6yuqwi7X1iJmwX9Kw-87" value="" style="endArrow=none;html=1;rounded=0;" parent="1" edge="1">
          <mxGeometry width="50" height="50" relative="1" as="geometry">
            <mxPoint x="1310" y="460" as="sourcePoint" />
            <mxPoint x="1310" y="50" as="targetPoint" />
          </mxGeometry>
        </mxCell>
        <mxCell id="QBM6yuqwi7X1iJmwX9Kw-91" value="" style="endArrow=classic;html=1;rounded=0;" parent="1" edge="1">
          <mxGeometry width="50" height="50" relative="1" as="geometry">
            <mxPoint x="1310" y="130" as="sourcePoint" />
            <mxPoint x="1350" y="130" as="targetPoint" />
            <Array as="points">
              <mxPoint x="1350" y="130" />
            </Array>
          </mxGeometry>
        </mxCell>
        <mxCell id="QBM6yuqwi7X1iJmwX9Kw-92" value="" style="endArrow=classic;html=1;rounded=0;" parent="1" edge="1">
          <mxGeometry width="50" height="50" relative="1" as="geometry">
            <mxPoint x="1310" y="49.5" as="sourcePoint" />
            <mxPoint x="1350" y="49.5" as="targetPoint" />
          </mxGeometry>
        </mxCell>
        <mxCell id="QBM6yuqwi7X1iJmwX9Kw-93" value="" style="endArrow=classic;html=1;rounded=0;" parent="1" edge="1">
          <mxGeometry width="50" height="50" relative="1" as="geometry">
            <mxPoint x="1310" y="209" as="sourcePoint" />
            <mxPoint x="1350" y="209" as="targetPoint" />
            <Array as="points">
              <mxPoint x="1350" y="209" />
            </Array>
          </mxGeometry>
        </mxCell>
        <mxCell id="QBM6yuqwi7X1iJmwX9Kw-94" value="" style="endArrow=classic;html=1;rounded=0;" parent="1" edge="1">
          <mxGeometry width="50" height="50" relative="1" as="geometry">
            <mxPoint x="1310" y="460" as="sourcePoint" />
            <mxPoint x="1350" y="460" as="targetPoint" />
            <Array as="points">
              <mxPoint x="1350" y="460" />
            </Array>
          </mxGeometry>
        </mxCell>
        <mxCell id="QBM6yuqwi7X1iJmwX9Kw-95" value="" style="endArrow=classic;html=1;rounded=0;" parent="1" edge="1">
          <mxGeometry width="50" height="50" relative="1" as="geometry">
            <mxPoint x="1310" y="289.5" as="sourcePoint" />
            <mxPoint x="1350" y="289.5" as="targetPoint" />
            <Array as="points">
              <mxPoint x="1350" y="289.5" />
            </Array>
          </mxGeometry>
        </mxCell>
        <mxCell id="QBM6yuqwi7X1iJmwX9Kw-96" value="" style="endArrow=classic;html=1;rounded=0;" parent="1" edge="1">
          <mxGeometry width="50" height="50" relative="1" as="geometry">
            <mxPoint x="1310" y="370" as="sourcePoint" />
            <mxPoint x="1350" y="370" as="targetPoint" />
            <Array as="points">
              <mxPoint x="1350" y="370" />
            </Array>
          </mxGeometry>
        </mxCell>
        <mxCell id="QBM6yuqwi7X1iJmwX9Kw-100" value="&lt;span style=&quot;font-size: 14px;&quot;&gt;&lt;b&gt;Produção Segura&lt;/b&gt;&lt;/span&gt;" style="text;whiteSpace=wrap;html=1;align=center;labelBorderColor=none;fillColor=#f5f5f5;strokeColor=light-dark(#050505, #959595);gradientColor=none;" parent="1" vertex="1">
          <mxGeometry x="860" y="390" width="400" height="30" as="geometry" />
        </mxCell>
        <mxCell id="QBM6yuqwi7X1iJmwX9Kw-101" value="&lt;div&gt;&lt;span style=&quot;font-size: 14px;&quot;&gt;&lt;b&gt;&lt;br&gt;&lt;/b&gt;&lt;/span&gt;&lt;/div&gt;&lt;span style=&quot;font-size: 14px;&quot;&gt;&lt;b&gt;&lt;div&gt;&lt;span style=&quot;font-size: 14px;&quot;&gt;&lt;b&gt;&lt;br&gt;&lt;/b&gt;&lt;/span&gt;&lt;/div&gt;&lt;div&gt;&lt;span style=&quot;font-size: 14px;&quot;&gt;&lt;b&gt;&lt;br&gt;&lt;/b&gt;&lt;/span&gt;&lt;/div&gt;&lt;div&gt;&lt;span style=&quot;font-size: 14px;&quot;&gt;&lt;b&gt;&lt;br&gt;&lt;/b&gt;&lt;/span&gt;&lt;/div&gt;&lt;div&gt;&lt;span style=&quot;font-size: 14px;&quot;&gt;&lt;b&gt;&lt;br&gt;&lt;/b&gt;&lt;/span&gt;&lt;/div&gt;&lt;div&gt;&lt;span style=&quot;font-size: 14px;&quot;&gt;&lt;b&gt;&lt;br&gt;&lt;/b&gt;&lt;/span&gt;&lt;/div&gt;&lt;div&gt;&lt;span style=&quot;font-size: 14px;&quot;&gt;&lt;b&gt;&lt;br&gt;&lt;/b&gt;&lt;/span&gt;&lt;/div&gt;&lt;div&gt;&lt;span style=&quot;font-size: 14px;&quot;&gt;&lt;b&gt;&lt;br&gt;&lt;/b&gt;&lt;/span&gt;&lt;/div&gt;&lt;div&gt;&lt;span style=&quot;font-size: 14px;&quot;&gt;&lt;b&gt;&lt;br&gt;&lt;/b&gt;&lt;/span&gt;&lt;/div&gt;&lt;div&gt;&lt;span style=&quot;font-size: 14px;&quot;&gt;&lt;b&gt;&lt;br&gt;&lt;/b&gt;&lt;/span&gt;&lt;/div&gt;&lt;div&gt;&lt;span style=&quot;font-size: 14px;&quot;&gt;&lt;b&gt;&lt;br&gt;&lt;/b&gt;&lt;/span&gt;&lt;/div&gt;Testes de Segurança em runtime&lt;/b&gt;&lt;/span&gt;" style="text;whiteSpace=wrap;html=1;align=center;labelBorderColor=none;fillColor=#f9f7ed;strokeColor=#36393d;" parent="1" vertex="1">
          <mxGeometry x="1530" y="20" width="100" height="460" as="geometry" />
        </mxCell>
        <mxCell id="QBM6yuqwi7X1iJmwX9Kw-103" value="" style="endArrow=classic;html=1;rounded=0;fontFamily=Helvetica;fontSize=12;fontColor=default;labelBorderColor=none;entryX=1;entryY=0.5;entryDx=0;entryDy=0;" parent="1" target="QBM6yuqwi7X1iJmwX9Kw-67" edge="1">
          <mxGeometry width="50" height="50" relative="1" as="geometry">
            <mxPoint x="1310" y="410" as="sourcePoint" />
            <mxPoint x="1270" y="340" as="targetPoint" />
            <Array as="points">
              <mxPoint x="1310" y="340" />
            </Array>
          </mxGeometry>
        </mxCell>
        <mxCell id="QBM6yuqwi7X1iJmwX9Kw-104" style="edgeStyle=orthogonalEdgeStyle;rounded=0;orthogonalLoop=1;jettySize=auto;html=1;exitX=0;exitY=0.5;exitDx=0;exitDy=0;" parent="1" source="QBM6yuqwi7X1iJmwX9Kw-105" target="QBM6yuqwi7X1iJmwX9Kw-107" edge="1">
          <mxGeometry relative="1" as="geometry" />
        </mxCell>
        <mxCell id="QBM6yuqwi7X1iJmwX9Kw-105" value="&lt;b&gt;Azure Monitor / Grafana&lt;/b&gt;" style="rounded=1;whiteSpace=wrap;html=1;fillColor=#ffcccc;strokeColor=#36393d;" parent="1" vertex="1">
          <mxGeometry x="720" y="310" width="120" height="60" as="geometry" />
        </mxCell>
        <mxCell id="QBM6yuqwi7X1iJmwX9Kw-107" value="&lt;b&gt;Feedback&lt;/b&gt;" style="rounded=1;whiteSpace=wrap;html=1;fillColor=#ffcccc;strokeColor=#36393d;" parent="1" vertex="1">
          <mxGeometry x="578" y="310" width="120" height="60" as="geometry" />
        </mxCell>
        <mxCell id="QBM6yuqwi7X1iJmwX9Kw-109" value="&lt;span style=&quot;font-size: 14px;&quot;&gt;&lt;b&gt;Monitoramento e Feedback&lt;/b&gt;&lt;/span&gt;" style="text;whiteSpace=wrap;html=1;align=center;labelBorderColor=none;fillColor=#ffcccc;strokeColor=#36393d;" parent="1" vertex="1">
          <mxGeometry x="570" y="390" width="268" height="30" as="geometry" />
        </mxCell>
        <mxCell id="QBM6yuqwi7X1iJmwX9Kw-112" value="" style="endArrow=classic;html=1;rounded=0;fontFamily=Helvetica;fontSize=12;fontColor=default;labelBorderColor=none;exitX=0;exitY=0.5;exitDx=0;exitDy=0;entryX=0.5;entryY=1;entryDx=0;entryDy=0;" parent="1" source="QBM6yuqwi7X1iJmwX9Kw-107" target="QBM6yuqwi7X1iJmwX9Kw-2" edge="1">
          <mxGeometry width="50" height="50" relative="1" as="geometry">
            <mxPoint x="630" y="200" as="sourcePoint" />
            <mxPoint x="60" y="340" as="targetPoint" />
            <Array as="points">
              <mxPoint x="80" y="340" />
            </Array>
          </mxGeometry>
        </mxCell>
        <mxCell id="9GUBS0RWgKlrgQ6AL1i0-1" value="" style="edgeStyle=orthogonalEdgeStyle;rounded=0;orthogonalLoop=1;jettySize=auto;html=1;" edge="1" parent="1" source="9GUBS0RWgKlrgQ6AL1i0-2" target="9GUBS0RWgKlrgQ6AL1i0-4">
          <mxGeometry relative="1" as="geometry" />
        </mxCell>
        <mxCell id="9GUBS0RWgKlrgQ6AL1i0-2" value="&lt;b&gt;Jira&lt;/b&gt;" style="rounded=1;whiteSpace=wrap;html=1;fillColor=#dae8fc;strokeColor=#6c8ebf;" vertex="1" parent="1">
          <mxGeometry x="20" y="210" width="120" height="60" as="geometry" />
        </mxCell>
        <mxCell id="9GUBS0RWgKlrgQ6AL1i0-3" value="&lt;b&gt;&lt;font style=&quot;font-size: 14px;&quot;&gt;Planejamento / Design&lt;/font&gt;&lt;/b&gt;" style="text;whiteSpace=wrap;html=1;align=center;fillColor=#dae8fc;gradientColor=none;strokeColor=#330000;" vertex="1" parent="1">
          <mxGeometry x="20" y="60" width="130" height="50" as="geometry" />
        </mxCell>
        <mxCell id="9GUBS0RWgKlrgQ6AL1i0-4" value="" style="sketch=0;pointerEvents=1;shadow=0;dashed=0;html=1;strokeColor=none;fillColor=#505050;labelPosition=center;verticalLabelPosition=bottom;verticalAlign=top;outlineConnect=0;align=center;shape=mxgraph.office.sites.site_team;" vertex="1" parent="1">
          <mxGeometry x="50" y="120" width="60" height="49" as="geometry" />
        </mxCell>
        <mxCell id="9GUBS0RWgKlrgQ6AL1i0-5" value="" style="endArrow=classic;startArrow=classic;html=1;rounded=0;" edge="1" parent="1" target="9GUBS0RWgKlrgQ6AL1i0-4">
          <mxGeometry width="50" height="50" relative="1" as="geometry">
            <mxPoint x="80" y="210" as="sourcePoint" />
            <mxPoint x="130" y="160" as="targetPoint" />
          </mxGeometry>
        </mxCell>
        <mxCell id="9GUBS0RWgKlrgQ6AL1i0-6" value="" style="edgeStyle=orthogonalEdgeStyle;rounded=0;orthogonalLoop=1;jettySize=auto;html=1;" edge="1" parent="1" source="9GUBS0RWgKlrgQ6AL1i0-7" target="9GUBS0RWgKlrgQ6AL1i0-13">
          <mxGeometry relative="1" as="geometry" />
        </mxCell>
        <mxCell id="9GUBS0RWgKlrgQ6AL1i0-7" value="" style="verticalLabelPosition=bottom;html=1;verticalAlign=top;align=center;strokeColor=none;fillColor=#FFD966;shape=mxgraph.azure.github_code;pointerEvents=1;fillStyle=solid;" vertex="1" parent="1">
          <mxGeometry x="200" y="215" width="50" height="50" as="geometry" />
        </mxCell>
        <mxCell id="9GUBS0RWgKlrgQ6AL1i0-8" value="&lt;b&gt;&lt;font style=&quot;font-size: 14px;&quot;&gt;Desenvolvimento/ Versionamento&lt;/font&gt;&lt;/b&gt;" style="text;whiteSpace=wrap;html=1;fillColor=#fff2cc;gradientColor=none;strokeColor=light-dark(#0d0d0c, #6d5100);" vertex="1" parent="1">
          <mxGeometry x="160" y="60" width="130" height="50" as="geometry" />
        </mxCell>
        <mxCell id="9GUBS0RWgKlrgQ6AL1i0-9" style="edgeStyle=orthogonalEdgeStyle;rounded=0;orthogonalLoop=1;jettySize=auto;html=1;entryX=0.5;entryY=0;entryDx=0;entryDy=0;entryPerimeter=0;" edge="1" parent="1">
          <mxGeometry relative="1" as="geometry">
            <mxPoint x="231.79999999999995" y="188.5" as="sourcePoint" />
            <mxPoint x="231.75" y="188.5" as="targetPoint" />
          </mxGeometry>
        </mxCell>
        <mxCell id="9GUBS0RWgKlrgQ6AL1i0-10" value="" style="endArrow=classic;startArrow=classic;html=1;rounded=0;entryX=0;entryY=0.5;entryDx=0;entryDy=0;entryPerimeter=0;" edge="1" parent="1" target="9GUBS0RWgKlrgQ6AL1i0-7">
          <mxGeometry width="50" height="50" relative="1" as="geometry">
            <mxPoint x="140" y="240" as="sourcePoint" />
            <mxPoint x="190" y="190" as="targetPoint" />
          </mxGeometry>
        </mxCell>
        <mxCell id="9GUBS0RWgKlrgQ6AL1i0-11" value="&lt;span style=&quot;font-size: 14px;&quot;&gt;&lt;b&gt;CI/CD Pipeline&amp;nbsp;&lt;/b&gt;&lt;/span&gt;" style="text;whiteSpace=wrap;html=1;align=center;labelBorderColor=none;fillColor=#ffcc99;strokeColor=#36393d;" vertex="1" parent="1">
          <mxGeometry x="300" y="60" width="820" height="50" as="geometry" />
        </mxCell>
        <mxCell id="9GUBS0RWgKlrgQ6AL1i0-12" style="edgeStyle=orthogonalEdgeStyle;rounded=0;orthogonalLoop=1;jettySize=auto;html=1;exitX=1;exitY=0.5;exitDx=0;exitDy=0;entryX=0;entryY=0.5;entryDx=0;entryDy=0;" edge="1" parent="1" source="9GUBS0RWgKlrgQ6AL1i0-13" target="9GUBS0RWgKlrgQ6AL1i0-15">
          <mxGeometry relative="1" as="geometry" />
        </mxCell>
        <mxCell id="9GUBS0RWgKlrgQ6AL1i0-13" value="&lt;b&gt;Secret Scan (Gitleaks)&lt;/b&gt;" style="rounded=1;whiteSpace=wrap;html=1;fillColor=#ffe6cc;strokeColor=#d79b00;" vertex="1" parent="1">
          <mxGeometry x="300" y="210" width="120" height="60" as="geometry" />
        </mxCell>
        <mxCell id="9GUBS0RWgKlrgQ6AL1i0-14" style="edgeStyle=orthogonalEdgeStyle;rounded=0;orthogonalLoop=1;jettySize=auto;html=1;exitX=1;exitY=0.5;exitDx=0;exitDy=0;entryX=0;entryY=0.5;entryDx=0;entryDy=0;" edge="1" parent="1" source="9GUBS0RWgKlrgQ6AL1i0-15" target="9GUBS0RWgKlrgQ6AL1i0-17">
          <mxGeometry relative="1" as="geometry" />
        </mxCell>
        <mxCell id="9GUBS0RWgKlrgQ6AL1i0-15" value="&lt;b&gt;SBOM - Syft/Grype&lt;/b&gt;" style="rounded=1;whiteSpace=wrap;html=1;fillColor=#ffe6cc;strokeColor=#d79b00;" vertex="1" parent="1">
          <mxGeometry x="440" y="210" width="120" height="60" as="geometry" />
        </mxCell>
        <mxCell id="9GUBS0RWgKlrgQ6AL1i0-16" style="edgeStyle=orthogonalEdgeStyle;rounded=0;orthogonalLoop=1;jettySize=auto;html=1;exitX=1;exitY=0.5;exitDx=0;exitDy=0;entryX=0;entryY=0.5;entryDx=0;entryDy=0;" edge="1" parent="1" source="9GUBS0RWgKlrgQ6AL1i0-17" target="9GUBS0RWgKlrgQ6AL1i0-19">
          <mxGeometry relative="1" as="geometry" />
        </mxCell>
        <mxCell id="9GUBS0RWgKlrgQ6AL1i0-17" value="&lt;b&gt;Unit Test&lt;/b&gt;" style="rounded=1;whiteSpace=wrap;html=1;fillColor=#ffe6cc;strokeColor=#d79b00;" vertex="1" parent="1">
          <mxGeometry x="580" y="210" width="120" height="60" as="geometry" />
        </mxCell>
        <mxCell id="9GUBS0RWgKlrgQ6AL1i0-18" style="edgeStyle=orthogonalEdgeStyle;rounded=0;orthogonalLoop=1;jettySize=auto;html=1;exitX=1;exitY=0.5;exitDx=0;exitDy=0;" edge="1" parent="1" source="9GUBS0RWgKlrgQ6AL1i0-19" target="9GUBS0RWgKlrgQ6AL1i0-21">
          <mxGeometry relative="1" as="geometry" />
        </mxCell>
        <mxCell id="9GUBS0RWgKlrgQ6AL1i0-19" value="&lt;b&gt;SAST - SonarQube&lt;/b&gt;" style="rounded=1;whiteSpace=wrap;html=1;fillColor=#ffe6cc;strokeColor=#d79b00;" vertex="1" parent="1">
          <mxGeometry x="720" y="210" width="120" height="60" as="geometry" />
        </mxCell>
        <mxCell id="9GUBS0RWgKlrgQ6AL1i0-20" style="edgeStyle=orthogonalEdgeStyle;rounded=0;orthogonalLoop=1;jettySize=auto;html=1;exitX=1;exitY=0.5;exitDx=0;exitDy=0;entryX=0;entryY=0.5;entryDx=0;entryDy=0;" edge="1" parent="1" source="9GUBS0RWgKlrgQ6AL1i0-21" target="9GUBS0RWgKlrgQ6AL1i0-23">
          <mxGeometry relative="1" as="geometry" />
        </mxCell>
        <mxCell id="9GUBS0RWgKlrgQ6AL1i0-21" value="&lt;b&gt;Dockerfile Scan (Trivy)&lt;/b&gt;" style="rounded=1;whiteSpace=wrap;html=1;fillColor=#ffe6cc;strokeColor=#d79b00;" vertex="1" parent="1">
          <mxGeometry x="860" y="210" width="120" height="60" as="geometry" />
        </mxCell>
        <mxCell id="9GUBS0RWgKlrgQ6AL1i0-22" style="edgeStyle=orthogonalEdgeStyle;rounded=0;orthogonalLoop=1;jettySize=auto;html=1;exitX=1;exitY=0.5;exitDx=0;exitDy=0;entryX=0;entryY=0.5;entryDx=0;entryDy=0;" edge="1" parent="1" source="9GUBS0RWgKlrgQ6AL1i0-23" target="9GUBS0RWgKlrgQ6AL1i0-28">
          <mxGeometry relative="1" as="geometry" />
        </mxCell>
        <mxCell id="9GUBS0RWgKlrgQ6AL1i0-23" value="&lt;b&gt;Build &amp;amp; Push Image&lt;/b&gt;" style="rounded=1;whiteSpace=wrap;html=1;fillColor=#ffe6cc;strokeColor=#d79b00;" vertex="1" parent="1">
          <mxGeometry x="1000" y="210" width="120" height="60" as="geometry" />
        </mxCell>
        <mxCell id="9GUBS0RWgKlrgQ6AL1i0-24" value="Escrita código/ commit/ push/ pull" style="rounded=1;whiteSpace=wrap;html=1;fillColor=#fff2cc;strokeColor=#d6b656;" vertex="1" parent="1">
          <mxGeometry x="165" y="114.5" width="120" height="60" as="geometry" />
        </mxCell>
        <mxCell id="9GUBS0RWgKlrgQ6AL1i0-25" value="" style="endArrow=classic;startArrow=classic;html=1;rounded=0;entryX=0.5;entryY=1;entryDx=0;entryDy=0;exitX=0.5;exitY=0;exitDx=0;exitDy=0;exitPerimeter=0;" edge="1" parent="1" source="9GUBS0RWgKlrgQ6AL1i0-7" target="9GUBS0RWgKlrgQ6AL1i0-24">
          <mxGeometry width="50" height="50" relative="1" as="geometry">
            <mxPoint x="220" y="219" as="sourcePoint" />
            <mxPoint x="240" y="170" as="targetPoint" />
          </mxGeometry>
        </mxCell>
        <mxCell id="9GUBS0RWgKlrgQ6AL1i0-26" value="&lt;b&gt;GitHub / GitLab / Azure Repos&lt;/b&gt;" style="text;whiteSpace=wrap;html=1;" vertex="1" parent="1">
          <mxGeometry x="140" y="270" width="190" height="40" as="geometry" />
        </mxCell>
        <mxCell id="9GUBS0RWgKlrgQ6AL1i0-27" style="rounded=0;orthogonalLoop=1;jettySize=auto;html=1;exitX=1;exitY=0.5;exitDx=0;exitDy=0;" edge="1" parent="1" source="9GUBS0RWgKlrgQ6AL1i0-28">
          <mxGeometry relative="1" as="geometry">
            <mxPoint x="1310" y="240" as="targetPoint" />
          </mxGeometry>
        </mxCell>
        <mxCell id="9GUBS0RWgKlrgQ6AL1i0-28" value="&lt;b&gt;Deploy&lt;/b&gt;" style="rounded=1;whiteSpace=wrap;html=1;fillColor=#d5e8d4;strokeColor=#82b366;" vertex="1" parent="1">
          <mxGeometry x="1142" y="210" width="120" height="60" as="geometry" />
        </mxCell>
        <mxCell id="9GUBS0RWgKlrgQ6AL1i0-29" style="edgeStyle=orthogonalEdgeStyle;rounded=0;orthogonalLoop=1;jettySize=auto;html=1;exitX=0;exitY=0.5;exitDx=0;exitDy=0;" edge="1" parent="1" source="9GUBS0RWgKlrgQ6AL1i0-30" target="9GUBS0RWgKlrgQ6AL1i0-32">
          <mxGeometry relative="1" as="geometry" />
        </mxCell>
        <mxCell id="9GUBS0RWgKlrgQ6AL1i0-30" value="&lt;b&gt;Kubernetes / App Service&lt;/b&gt;" style="rounded=1;whiteSpace=wrap;html=1;fillColor=#eeeeee;strokeColor=#36393d;" vertex="1" parent="1">
          <mxGeometry x="1142" y="310" width="120" height="60" as="geometry" />
        </mxCell>
        <mxCell id="9GUBS0RWgKlrgQ6AL1i0-31" style="edgeStyle=orthogonalEdgeStyle;rounded=0;orthogonalLoop=1;jettySize=auto;html=1;exitX=0;exitY=0.5;exitDx=0;exitDy=0;entryX=1;entryY=0.5;entryDx=0;entryDy=0;" edge="1" parent="1" source="9GUBS0RWgKlrgQ6AL1i0-32" target="9GUBS0RWgKlrgQ6AL1i0-35">
          <mxGeometry relative="1" as="geometry" />
        </mxCell>
        <mxCell id="9GUBS0RWgKlrgQ6AL1i0-32" value="&lt;b&gt;WAF / App Gateway&lt;/b&gt;" style="rounded=1;whiteSpace=wrap;html=1;fillColor=#eeeeee;strokeColor=#36393d;" vertex="1" parent="1">
          <mxGeometry x="1000" y="310" width="120" height="60" as="geometry" />
        </mxCell>
        <mxCell id="9GUBS0RWgKlrgQ6AL1i0-33" value="&lt;font style=&quot;font-size: 14px;&quot;&gt;&lt;b&gt;Implantação&lt;/b&gt;&lt;/font&gt;&lt;div&gt;&lt;font style=&quot;font-size: 14px;&quot;&gt;&lt;b&gt;&lt;br&gt;&lt;/b&gt;&lt;/font&gt;&lt;/div&gt;" style="text;html=1;align=center;verticalAlign=middle;resizable=0;points=[];autosize=1;strokeColor=#330000;fillColor=#d5e8d4;gradientColor=none;" vertex="1" parent="1">
          <mxGeometry x="1142" y="60" width="110" height="50" as="geometry" />
        </mxCell>
        <mxCell id="9GUBS0RWgKlrgQ6AL1i0-34" style="edgeStyle=orthogonalEdgeStyle;rounded=0;orthogonalLoop=1;jettySize=auto;html=1;exitX=0;exitY=0.5;exitDx=0;exitDy=0;entryX=1;entryY=0.5;entryDx=0;entryDy=0;fontFamily=Helvetica;fontSize=12;fontColor=default;labelBorderColor=none;" edge="1" parent="1" source="9GUBS0RWgKlrgQ6AL1i0-35" target="9GUBS0RWgKlrgQ6AL1i0-53">
          <mxGeometry relative="1" as="geometry" />
        </mxCell>
        <mxCell id="9GUBS0RWgKlrgQ6AL1i0-35" value="&lt;b&gt;Vault / Secure Config&lt;/b&gt;" style="rounded=1;whiteSpace=wrap;html=1;fillColor=#eeeeee;strokeColor=#36393d;" vertex="1" parent="1">
          <mxGeometry x="860" y="310" width="120" height="60" as="geometry" />
        </mxCell>
        <mxCell id="9GUBS0RWgKlrgQ6AL1i0-36" value="&lt;b&gt;&lt;font&gt;DAST - OWASP ZAP&lt;/font&gt;&lt;/b&gt;" style="rounded=1;whiteSpace=wrap;html=1;fillColor=#f9f7ed;strokeColor=#36393d;" vertex="1" parent="1">
          <mxGeometry x="1350" y="20" width="120" height="60" as="geometry" />
        </mxCell>
        <mxCell id="9GUBS0RWgKlrgQ6AL1i0-37" value="&lt;b&gt;Performance - JMeter&lt;/b&gt;" style="rounded=1;whiteSpace=wrap;html=1;fillColor=#f9f7ed;strokeColor=#36393d;" vertex="1" parent="1">
          <mxGeometry x="1350" y="100" width="120" height="60" as="geometry" />
        </mxCell>
        <mxCell id="9GUBS0RWgKlrgQ6AL1i0-38" value="&lt;b&gt;Testes End-to-End -&lt;/b&gt;&lt;div&gt;&lt;b&gt;Selenium&lt;/b&gt;&lt;/div&gt;" style="rounded=1;whiteSpace=wrap;html=1;fillColor=#f9f7ed;strokeColor=#36393d;" vertex="1" parent="1">
          <mxGeometry x="1350" y="180" width="120" height="60" as="geometry" />
        </mxCell>
        <mxCell id="9GUBS0RWgKlrgQ6AL1i0-39" value="&lt;b&gt;K8s Manifest Scan&lt;/b&gt;" style="rounded=1;whiteSpace=wrap;html=1;fillColor=#f9f7ed;strokeColor=#36393d;" vertex="1" parent="1">
          <mxGeometry x="1350" y="260" width="120" height="60" as="geometry" />
        </mxCell>
        <mxCell id="9GUBS0RWgKlrgQ6AL1i0-40" value="&lt;b&gt;Container Signing - Cosign&lt;/b&gt;" style="rounded=1;whiteSpace=wrap;html=1;fillColor=#f9f7ed;strokeColor=#36393d;" vertex="1" parent="1">
          <mxGeometry x="1350" y="340" width="120" height="60" as="geometry" />
        </mxCell>
        <mxCell id="9GUBS0RWgKlrgQ6AL1i0-41" value="&lt;b&gt;Image Validation - Trivy&lt;/b&gt;" style="rounded=1;whiteSpace=wrap;html=1;fillColor=#f9f7ed;strokeColor=#36393d;" vertex="1" parent="1">
          <mxGeometry x="1350" y="420" width="120" height="60" as="geometry" />
        </mxCell>
        <mxCell id="9GUBS0RWgKlrgQ6AL1i0-42" value="" style="endArrow=none;html=1;rounded=0;" edge="1" parent="1">
          <mxGeometry width="50" height="50" relative="1" as="geometry">
            <mxPoint x="1310" y="460" as="sourcePoint" />
            <mxPoint x="1310" y="50" as="targetPoint" />
          </mxGeometry>
        </mxCell>
        <mxCell id="9GUBS0RWgKlrgQ6AL1i0-43" value="" style="endArrow=classic;html=1;rounded=0;" edge="1" parent="1">
          <mxGeometry width="50" height="50" relative="1" as="geometry">
            <mxPoint x="1310" y="130" as="sourcePoint" />
            <mxPoint x="1350" y="130" as="targetPoint" />
            <Array as="points">
              <mxPoint x="1350" y="130" />
            </Array>
          </mxGeometry>
        </mxCell>
        <mxCell id="9GUBS0RWgKlrgQ6AL1i0-44" value="" style="endArrow=classic;html=1;rounded=0;" edge="1" parent="1">
          <mxGeometry width="50" height="50" relative="1" as="geometry">
            <mxPoint x="1310" y="49.5" as="sourcePoint" />
            <mxPoint x="1350" y="49.5" as="targetPoint" />
          </mxGeometry>
        </mxCell>
        <mxCell id="9GUBS0RWgKlrgQ6AL1i0-45" value="" style="endArrow=classic;html=1;rounded=0;" edge="1" parent="1">
          <mxGeometry width="50" height="50" relative="1" as="geometry">
            <mxPoint x="1310" y="209" as="sourcePoint" />
            <mxPoint x="1350" y="209" as="targetPoint" />
            <Array as="points">
              <mxPoint x="1350" y="209" />
            </Array>
          </mxGeometry>
        </mxCell>
        <mxCell id="9GUBS0RWgKlrgQ6AL1i0-46" value="" style="endArrow=classic;html=1;rounded=0;" edge="1" parent="1">
          <mxGeometry width="50" height="50" relative="1" as="geometry">
            <mxPoint x="1310" y="460" as="sourcePoint" />
            <mxPoint x="1350" y="460" as="targetPoint" />
            <Array as="points">
              <mxPoint x="1350" y="460" />
            </Array>
          </mxGeometry>
        </mxCell>
        <mxCell id="9GUBS0RWgKlrgQ6AL1i0-47" value="" style="endArrow=classic;html=1;rounded=0;" edge="1" parent="1">
          <mxGeometry width="50" height="50" relative="1" as="geometry">
            <mxPoint x="1310" y="289.5" as="sourcePoint" />
            <mxPoint x="1350" y="289.5" as="targetPoint" />
            <Array as="points">
              <mxPoint x="1350" y="289.5" />
            </Array>
          </mxGeometry>
        </mxCell>
        <mxCell id="9GUBS0RWgKlrgQ6AL1i0-48" value="" style="endArrow=classic;html=1;rounded=0;" edge="1" parent="1">
          <mxGeometry width="50" height="50" relative="1" as="geometry">
            <mxPoint x="1310" y="370" as="sourcePoint" />
            <mxPoint x="1350" y="370" as="targetPoint" />
            <Array as="points">
              <mxPoint x="1350" y="370" />
            </Array>
          </mxGeometry>
        </mxCell>
        <mxCell id="9GUBS0RWgKlrgQ6AL1i0-49" value="&lt;span style=&quot;font-size: 14px;&quot;&gt;&lt;b&gt;Produção Segura&lt;/b&gt;&lt;/span&gt;" style="text;whiteSpace=wrap;html=1;align=center;labelBorderColor=none;fillColor=#f5f5f5;strokeColor=light-dark(#050505, #959595);gradientColor=none;" vertex="1" parent="1">
          <mxGeometry x="860" y="390" width="400" height="30" as="geometry" />
        </mxCell>
        <mxCell id="9GUBS0RWgKlrgQ6AL1i0-50" value="&lt;div&gt;&lt;span style=&quot;font-size: 14px;&quot;&gt;&lt;b&gt;&lt;br&gt;&lt;/b&gt;&lt;/span&gt;&lt;/div&gt;&lt;span style=&quot;font-size: 14px;&quot;&gt;&lt;b&gt;&lt;div&gt;&lt;span style=&quot;font-size: 14px;&quot;&gt;&lt;b&gt;&lt;br&gt;&lt;/b&gt;&lt;/span&gt;&lt;/div&gt;&lt;div&gt;&lt;span style=&quot;font-size: 14px;&quot;&gt;&lt;b&gt;&lt;br&gt;&lt;/b&gt;&lt;/span&gt;&lt;/div&gt;&lt;div&gt;&lt;span style=&quot;font-size: 14px;&quot;&gt;&lt;b&gt;&lt;br&gt;&lt;/b&gt;&lt;/span&gt;&lt;/div&gt;&lt;div&gt;&lt;span style=&quot;font-size: 14px;&quot;&gt;&lt;b&gt;&lt;br&gt;&lt;/b&gt;&lt;/span&gt;&lt;/div&gt;&lt;div&gt;&lt;span style=&quot;font-size: 14px;&quot;&gt;&lt;b&gt;&lt;br&gt;&lt;/b&gt;&lt;/span&gt;&lt;/div&gt;&lt;div&gt;&lt;span style=&quot;font-size: 14px;&quot;&gt;&lt;b&gt;&lt;br&gt;&lt;/b&gt;&lt;/span&gt;&lt;/div&gt;&lt;div&gt;&lt;span style=&quot;font-size: 14px;&quot;&gt;&lt;b&gt;&lt;br&gt;&lt;/b&gt;&lt;/span&gt;&lt;/div&gt;&lt;div&gt;&lt;span style=&quot;font-size: 14px;&quot;&gt;&lt;b&gt;&lt;br&gt;&lt;/b&gt;&lt;/span&gt;&lt;/div&gt;&lt;div&gt;&lt;span style=&quot;font-size: 14px;&quot;&gt;&lt;b&gt;&lt;br&gt;&lt;/b&gt;&lt;/span&gt;&lt;/div&gt;&lt;div&gt;&lt;span style=&quot;font-size: 14px;&quot;&gt;&lt;b&gt;&lt;br&gt;&lt;/b&gt;&lt;/span&gt;&lt;/div&gt;Testes de Segurança em runtime&lt;/b&gt;&lt;/span&gt;" style="text;whiteSpace=wrap;html=1;align=center;labelBorderColor=none;fillColor=#f9f7ed;strokeColor=#36393d;" vertex="1" parent="1">
          <mxGeometry x="1530" y="20" width="100" height="460" as="geometry" />
        </mxCell>
        <mxCell id="9GUBS0RWgKlrgQ6AL1i0-51" value="" style="endArrow=classic;html=1;rounded=0;fontFamily=Helvetica;fontSize=12;fontColor=default;labelBorderColor=none;entryX=1;entryY=0.5;entryDx=0;entryDy=0;" edge="1" parent="1" target="9GUBS0RWgKlrgQ6AL1i0-30">
          <mxGeometry width="50" height="50" relative="1" as="geometry">
            <mxPoint x="1310" y="410" as="sourcePoint" />
            <mxPoint x="1270" y="340" as="targetPoint" />
            <Array as="points">
              <mxPoint x="1310" y="340" />
            </Array>
          </mxGeometry>
        </mxCell>
        <mxCell id="9GUBS0RWgKlrgQ6AL1i0-52" style="edgeStyle=orthogonalEdgeStyle;rounded=0;orthogonalLoop=1;jettySize=auto;html=1;exitX=0;exitY=0.5;exitDx=0;exitDy=0;" edge="1" parent="1" source="9GUBS0RWgKlrgQ6AL1i0-53" target="9GUBS0RWgKlrgQ6AL1i0-54">
          <mxGeometry relative="1" as="geometry" />
        </mxCell>
        <mxCell id="9GUBS0RWgKlrgQ6AL1i0-53" value="&lt;b&gt;Azure Monitor / Grafana&lt;/b&gt;" style="rounded=1;whiteSpace=wrap;html=1;fillColor=#ffcccc;strokeColor=#36393d;" vertex="1" parent="1">
          <mxGeometry x="720" y="310" width="120" height="60" as="geometry" />
        </mxCell>
        <mxCell id="9GUBS0RWgKlrgQ6AL1i0-54" value="&lt;b&gt;Feedback&lt;/b&gt;" style="rounded=1;whiteSpace=wrap;html=1;fillColor=#ffcccc;strokeColor=#36393d;" vertex="1" parent="1">
          <mxGeometry x="578" y="310" width="120" height="60" as="geometry" />
        </mxCell>
        <mxCell id="9GUBS0RWgKlrgQ6AL1i0-55" value="&lt;span style=&quot;font-size: 14px;&quot;&gt;&lt;b&gt;Monitoramento e Feedback&lt;/b&gt;&lt;/span&gt;" style="text;whiteSpace=wrap;html=1;align=center;labelBorderColor=none;fillColor=#ffcccc;strokeColor=#36393d;" vertex="1" parent="1">
          <mxGeometry x="570" y="390" width="268" height="30" as="geometry" />
        </mxCell>
        <mxCell id="9GUBS0RWgKlrgQ6AL1i0-56" value="" style="endArrow=classic;html=1;rounded=0;fontFamily=Helvetica;fontSize=12;fontColor=default;labelBorderColor=none;exitX=0;exitY=0.5;exitDx=0;exitDy=0;entryX=0.5;entryY=1;entryDx=0;entryDy=0;" edge="1" parent="1" source="9GUBS0RWgKlrgQ6AL1i0-54" target="9GUBS0RWgKlrgQ6AL1i0-2">
          <mxGeometry width="50" height="50" relative="1" as="geometry">
            <mxPoint x="630" y="200" as="sourcePoint" />
            <mxPoint x="60" y="340" as="targetPoint" />
            <Array as="points">
              <mxPoint x="80" y="340" />
            </Array>
          </mxGeometry>
        </mxCell>
        <mxCell id="9GUBS0RWgKlrgQ6AL1i0-83" value="&lt;font style=&quot;font-size: 15px;&quot;&gt;&lt;b&gt;Etapas do Pipeline DevSecOps:&lt;/b&gt;&lt;br&gt;&lt;br&gt;&lt;b&gt;Planejamento / Design &lt;/b&gt;→ Jira → Registro de tarefas, histórias e bugs pelo time ágil.&lt;/font&gt;&lt;div&gt;&lt;font style=&quot;font-size: 15px;&quot;&gt;&lt;br&gt;&lt;b&gt;Desenvolvimento / Versionamento&lt;/b&gt; → GitHub / GitLab / Azure Repos → Dev escreve código, faz commit/push/pull e envia ao repositório central.&lt;/font&gt;&lt;/div&gt;&lt;div&gt;&lt;span style=&quot;font-size: 15px;&quot;&gt;&lt;br&gt;&lt;/span&gt;&lt;div&gt;&lt;font style=&quot;font-size: 15px;&quot;&gt;&lt;b&gt;CI/CD Pipeline:&lt;/b&gt;&lt;br&gt;&lt;b&gt;Secret Scan → Gitleaks&lt;/b&gt; → Detecta segredos expostos (senhas, tokens, chaves).&lt;br&gt;&lt;b&gt;SBOM → Syft / Grype&lt;/b&gt; → Gera inventário de dependências para identificar vulnerabilidades.&lt;br&gt;&lt;b&gt;Unit Test &lt;/b&gt;→ PyTest / JUnit → Valida se partes pequenas do código funcionam corretamente.&lt;br&gt;&lt;b&gt;SAST → SonarQube&lt;/b&gt; → Análise estática do código para achar falhas e más práticas.&lt;br&gt;&lt;b&gt;Dockerfile Scan → Trivy &lt;/b&gt;→ Verifica pacotes e configurações no Dockerfile antes do build.&lt;br&gt;&lt;b&gt;&lt;br&gt;&lt;/b&gt;&lt;/font&gt;&lt;/div&gt;&lt;div&gt;&lt;font style=&quot;font-size: 15px;&quot;&gt;&lt;b&gt;Build &amp;amp; Push Image &lt;/b&gt;→ Docker + Registry (GHCR/ACR) → Empacota o código em imagem Docker e envia para o registry.&lt;/font&gt;&lt;/div&gt;&lt;div&gt;&lt;font style=&quot;font-size: 15px;&quot;&gt;&lt;br&gt;&lt;b&gt;Deploy &lt;/b&gt;→ Azure DevOps / ArgoCD → Publica a aplicação em ambientes (Dev, Teste, UAT, Prod).&lt;/font&gt;&lt;/div&gt;&lt;div&gt;&lt;font style=&quot;font-size: 15px;&quot;&gt;&lt;br&gt;&lt;/font&gt;&lt;/div&gt;&lt;div&gt;&lt;font style=&quot;font-size: 15px;&quot;&gt;&lt;b style=&quot;font-size: 14px; text-align: center;&quot;&gt;Testes de Segurança em runtime:&lt;/b&gt;&lt;br&gt;&lt;b&gt;DAST → OWASP ZAP&lt;/b&gt; → Testa a aplicação em execução contra ataques reais.&lt;br&gt;&lt;b&gt;Performance → JMeter &lt;/b&gt;→ Mede desempenho, carga e estresse do sistema.&lt;br&gt;&lt;b&gt;End-to-End → Selenium &lt;/b&gt;→ Valida fluxos completos de uso da aplicação.&lt;br&gt;&lt;b&gt;K8s Manifest Scan&lt;/b&gt; → Kube-score / Polaris → Analisa configurações do Kubernetes para boas práticas.&lt;br&gt;&lt;b&gt;Container Signing &lt;/b&gt;→ Cosign → Assina a imagem para garantir integridade e autenticidade.&lt;br&gt;&lt;b&gt;Image Validation &lt;/b&gt;→ Trivy → Faz nova checagem de vulnerabilidades em runtime.&lt;/font&gt;&lt;/div&gt;&lt;div&gt;&lt;font style=&quot;font-size: 15px;&quot;&gt;&lt;br&gt;&lt;b&gt;Produção Segura&lt;/b&gt; → Vault, WAF, App Gateway, Kubernetes/App Service → Armazena segredos, protege rede e roda aplicação em ambiente seguro.&lt;/font&gt;&lt;/div&gt;&lt;div&gt;&lt;font style=&quot;font-size: 15px;&quot;&gt;&lt;br&gt;&lt;b&gt;Monitoramento e Feedback&lt;/b&gt; → Azure Monitor / Grafana → Monitora falhas, gera alertas e envia feedback ao time (Jira).&lt;/font&gt;&lt;/div&gt;&lt;/div&gt;" style="text;whiteSpace=wrap;html=1;" vertex="1" parent="1">
          <mxGeometry x="20" y="470" width="750" height="650" as="geometry" />
        </mxCell>
      </root>
    </mxGraphModel>
  </diagram>
</mxfile>
